<!-- icon666.com - MILLIONS vector ICONS FREE --><svg id="Layer_1" enable-background="new 0 0 152 152" viewBox="0 0 152 152" xmlns="http://www.w3.org/2000/svg"><g id="Icon"><path d="m140.9 140.9v-47.6c0-23.4-5-41.2-32.3-41.2-13.1 0-21.9 7.1-25.5 14h-.3v-11.9h-25.8v86.7h27v-42.9c0-11.4 2.1-22.2 16.2-22.2s14 13 14 23v42.2z" fill="#ffffff" style="fill: rgb(0, 0, 0);"></path><path d="m13.2 54.2h26.9v86.7h-26.9z" fill="#ffffff" style="fill: rgb(0, 0, 0);"></path><path d="m26.7 11c-8.6 0-15.7 7-15.7 15.6s7 15.7 15.6 15.7 15.7-7 15.7-15.6v-.2c0-8.5-7-15.5-15.6-15.5z" fill="#ffffff" style="fill: rgb(0, 0, 0);"></path></g></svg>